<svg width="500" height="677" viewBox="0 0 500 677" fill="none" xmlns="http://www.w3.org/2000/svg">
<rect width="500" height="677" fill="#1C1125"/>
<mask id="path-2-outside-1_0_1" maskUnits="userSpaceOnUse" x="54" y="142" width="393" height="393" fill="black">
<rect fill="white" x="54" y="142" width="393" height="393"/>
<path fill-rule="evenodd" clip-rule="evenodd" d="M444.909 285.421L406.51 247.022C398.569 252.681 388.908 256 378.487 256C351.425 256 329.487 233.614 329.487 206C329.487 195.729 332.522 186.181 337.727 178.24L303.487 144L255.19 192.297L267.893 205L254.993 217.899L242.291 205.197L56 391.487L91.8772 427.365C99.3295 422.694 108.1 420 117.487 420C144.549 420 166.487 442.386 166.487 470C166.487 479.218 164.043 487.853 159.78 495.267L197.421 532.909L383.459 346.871L372.487 335.9L385.387 323L396.358 333.972L444.909 285.421ZM280.387 218L301.993 239.607L289.094 252.506L267.487 230.9L280.387 218ZM336.993 274.607L315.387 253L302.487 265.9L324.094 287.506L336.993 274.607ZM350.387 288L371.993 309.607L359.094 322.506L337.487 300.9L350.387 288Z"/>
</mask>
<path fill-rule="evenodd" clip-rule="evenodd" d="M444.909 285.421L406.51 247.022C398.569 252.681 388.908 256 378.487 256C351.425 256 329.487 233.614 329.487 206C329.487 195.729 332.522 186.181 337.727 178.24L303.487 144L255.19 192.297L267.893 205L254.993 217.899L242.291 205.197L56 391.487L91.8772 427.365C99.3295 422.694 108.1 420 117.487 420C144.549 420 166.487 442.386 166.487 470C166.487 479.218 164.043 487.853 159.78 495.267L197.421 532.909L383.459 346.871L372.487 335.9L385.387 323L396.358 333.972L444.909 285.421ZM280.387 218L301.993 239.607L289.094 252.506L267.487 230.9L280.387 218ZM336.993 274.607L315.387 253L302.487 265.9L324.094 287.506L336.993 274.607ZM350.387 288L371.993 309.607L359.094 322.506L337.487 300.9L350.387 288Z" fill="#DAB9F8"/>
<path d="M406.51 247.022L407.217 246.315L406.618 245.717L405.929 246.208L406.51 247.022ZM444.909 285.421L445.616 286.128L446.323 285.421L445.616 284.714L444.909 285.421ZM337.727 178.24L338.564 178.788L339.009 178.108L338.434 177.533L337.727 178.24ZM303.487 144L304.194 143.293L303.487 142.586L302.78 143.293L303.487 144ZM255.19 192.297L254.483 191.59L253.776 192.297L254.483 193.004L255.19 192.297ZM267.893 205L268.6 205.707L269.307 205L268.6 204.293L267.893 205ZM254.993 217.899L254.286 218.607L254.993 219.314L255.701 218.607L254.993 217.899ZM242.291 205.197L242.998 204.49L242.291 203.782L241.584 204.49L242.291 205.197ZM56 391.487L55.2929 390.78L54.5858 391.487L55.2929 392.194L56 391.487ZM91.8772 427.365L91.1701 428.072L91.7333 428.635L92.4083 428.212L91.8772 427.365ZM159.78 495.267L158.913 494.768L158.531 495.432L159.073 495.974L159.78 495.267ZM197.421 532.909L196.714 533.616L197.421 534.323L198.128 533.616L197.421 532.909ZM383.459 346.871L384.166 347.578L384.873 346.871L384.166 346.164L383.459 346.871ZM372.487 335.9L371.78 335.192L371.073 335.9L371.78 336.607L372.487 335.9ZM385.387 323L386.094 322.293L385.387 321.586L384.68 322.293L385.387 323ZM396.358 333.972L395.651 334.679L396.358 335.386L397.066 334.679L396.358 333.972ZM301.993 239.607L302.701 240.314L303.408 239.607L302.701 238.9L301.993 239.607ZM280.387 218L281.094 217.293L280.387 216.586L279.68 217.293L280.387 218ZM289.094 252.506L288.387 253.213L289.094 253.92L289.801 253.213L289.094 252.506ZM267.487 230.9L266.78 230.192L266.073 230.9L266.78 231.607L267.487 230.9ZM315.387 253L316.094 252.293L315.387 251.586L314.68 252.293L315.387 253ZM336.993 274.607L337.701 275.314L338.408 274.607L337.701 273.9L336.993 274.607ZM302.487 265.9L301.78 265.192L301.073 265.9L301.78 266.607L302.487 265.9ZM324.094 287.506L323.387 288.213L324.094 288.92L324.801 288.213L324.094 287.506ZM371.993 309.607L372.701 310.314L373.408 309.607L372.701 308.9L371.993 309.607ZM350.387 288L351.094 287.293L350.387 286.586L349.68 287.293L350.387 288ZM359.094 322.506L358.387 323.213L359.094 323.92L359.801 323.213L359.094 322.506ZM337.487 300.9L336.78 300.192L336.073 300.9L336.78 301.607L337.487 300.9ZM405.802 247.729L444.202 286.128L445.616 284.714L407.217 246.315L405.802 247.729ZM378.487 257C389.124 257 398.986 253.611 407.09 247.837L405.929 246.208C398.151 251.751 388.692 255 378.487 255V257ZM328.487 206C328.487 234.147 350.854 257 378.487 257V255C351.997 255 330.487 233.081 330.487 206H328.487ZM336.891 177.692C331.582 185.792 328.487 195.53 328.487 206H330.487C330.487 195.928 333.463 186.571 338.564 178.788L336.891 177.692ZM302.78 144.707L337.02 178.947L338.434 177.533L304.194 143.293L302.78 144.707ZM255.897 193.004L304.194 144.707L302.78 143.293L254.483 191.59L255.897 193.004ZM268.6 204.293L255.897 191.59L254.483 193.004L267.186 205.707L268.6 204.293ZM255.701 218.607L268.6 205.707L267.186 204.293L254.286 217.192L255.701 218.607ZM241.584 205.904L254.286 218.607L255.701 217.192L242.998 204.49L241.584 205.904ZM56.7071 392.194L242.998 205.904L241.584 204.49L55.2929 390.78L56.7071 392.194ZM92.5843 426.657L56.7071 390.78L55.2929 392.194L91.1701 428.072L92.5843 426.657ZM92.4083 428.212C99.707 423.637 108.294 421 117.487 421V419C107.906 419 98.9521 421.75 91.3461 426.517L92.4083 428.212ZM117.487 421C143.978 421 165.487 442.919 165.487 470H167.487C167.487 441.853 145.121 419 117.487 419V421ZM165.487 470C165.487 479.039 163.091 487.502 158.913 494.768L160.647 495.765C164.995 488.203 167.487 479.396 167.487 470H165.487ZM198.128 532.202L160.487 494.56L159.073 495.974L196.714 533.616L198.128 532.202ZM382.752 346.164L196.714 532.202L198.128 533.616L384.166 347.578L382.752 346.164ZM371.78 336.607L382.752 347.578L384.166 346.164L373.194 335.192L371.78 336.607ZM384.68 322.293L371.78 335.192L373.194 336.607L386.094 323.707L384.68 322.293ZM397.066 333.265L386.094 322.293L384.68 323.707L395.651 334.679L397.066 333.265ZM444.202 284.714L395.651 333.265L397.066 334.679L445.616 286.128L444.202 284.714ZM302.701 238.9L281.094 217.293L279.68 218.707L301.286 240.314L302.701 238.9ZM289.801 253.213L302.701 240.314L301.286 238.9L288.387 251.799L289.801 253.213ZM266.78 231.607L288.387 253.213L289.801 251.799L268.194 230.192L266.78 231.607ZM279.68 217.293L266.78 230.192L268.194 231.607L281.094 218.707L279.68 217.293ZM314.68 253.707L336.286 275.314L337.701 273.9L316.094 252.293L314.68 253.707ZM303.194 266.607L316.094 253.707L314.68 252.293L301.78 265.192L303.194 266.607ZM324.801 286.799L303.194 265.192L301.78 266.607L323.387 288.213L324.801 286.799ZM336.286 273.9L323.387 286.799L324.801 288.213L337.701 275.314L336.286 273.9ZM372.701 308.9L351.094 287.293L349.68 288.707L371.286 310.314L372.701 308.9ZM359.801 323.213L372.701 310.314L371.286 308.9L358.387 321.799L359.801 323.213ZM336.78 301.607L358.387 323.213L359.801 321.799L338.194 300.192L336.78 301.607ZM349.68 287.293L336.78 300.192L338.194 301.607L351.094 288.707L349.68 287.293Z" fill="white" mask="url(#path-2-outside-1_0_1)"/>
<path d="M249.5 386.5C262.95 386.5 275.15 383.94 284.007 379.778C292.825 375.635 298.5 369.813 298.5 363.212C298.5 356.612 292.825 350.789 284.007 346.646C275.15 342.485 262.95 339.924 249.5 339.924C236.05 339.924 223.85 342.485 214.993 346.646C206.175 350.789 200.5 356.612 200.5 363.212C200.5 369.813 206.175 375.635 214.993 379.778C223.85 383.94 236.05 386.5 249.5 386.5Z" fill="#1C1125" stroke="white"/>
<path d="M249.5 362.288C262.95 362.288 275.15 359.728 284.007 355.566C292.825 351.423 298.5 345.601 298.5 339C298.5 332.399 292.825 326.577 284.007 322.434C275.15 318.273 262.95 315.712 249.5 315.712C236.05 315.712 223.85 318.273 214.993 322.434C206.175 326.577 200.5 332.399 200.5 339C200.5 345.601 206.175 351.423 214.993 355.566C223.85 359.728 236.05 362.288 249.5 362.288Z" fill="#1C1125" stroke="white"/>
<path d="M249.5 338.076C262.95 338.076 275.15 335.515 284.007 331.354C292.825 327.211 298.5 321.388 298.5 314.788C298.5 308.187 292.825 302.365 284.007 298.222C275.15 294.06 262.95 291.5 249.5 291.5C236.05 291.5 223.85 294.06 214.993 298.222C206.175 302.365 200.5 308.187 200.5 314.788C200.5 321.388 206.175 327.211 214.993 331.354C223.85 335.515 236.05 338.076 249.5 338.076Z" fill="#1C1125" stroke="white"/>
</svg>
